# xmcd
#
# Track frame offsets:
#  150
#  25628
#  60807
#  78247
#  98821
#  123172
#  142362
#  162332
#  179937
#  199853
#  222410
#
# Disc length: 3373 seconds
#
# Revision: 0
# Processed by: cddbd v1.5.1PL0 Copyright (c) Steve Scherf et al.
# Submitted via: Collectorz.com Music Collector 6.9
#
DISCID=9a0d2b0b
DTITLE=guy clark and verlon thompson - Bloomsbury Theatre, London - 21 Jan 2004 - Disc 1
DYEAR=2004
DGENRE=
TTITLE0=guy clark - The Cape
TTITLE1=guy clark - La Freeway
TTITLE2=guy clark - Texas 1947
TTITLE3=guy clark - Stuff That Works
TTITLE4=guy clark - Sis Draper
TTITLE5=guy clark - Soldiers Joy 1864
TTITLE6=guy clark - Magnolia Wind
TTITLE7=guy clark - Arizona Star
TTITLE8=guy clark - Move With Me, Magdalene
TTITLE9=guy clark - Homegrown Tomatoes
TTITLE10=guy clark - Out In The Parking Lot
EXTD=
EXTT0=
EXTT1=
EXTT2=
EXTT3=
EXTT4=
EXTT5=
EXTT6=
EXTT7=
EXTT8=
EXTT9=
EXTT10=
PLAYORDER=
